<svg width="98" height="21" viewBox="0 0 98 21" fill="none" xmlns="http://www.w3.org/2000/svg">
<path d="M1.35831 4.63636H3.62216L7.55824 14.2472H7.70312L11.6392 4.63636H13.9031V17H12.1282V8.05327H12.0135L8.36719 16.9819H6.89418L3.24787 8.04723H3.13317V17H1.35831V4.63636ZM17.6112 20.4773C17.3416 20.4773 17.0961 20.4551 16.8747 20.4109C16.6534 20.3706 16.4884 20.3263 16.3797 20.2781L16.8144 18.799C17.1444 18.8875 17.4382 18.9258 17.6958 18.9137C17.9533 18.9016 18.1807 18.805 18.3779 18.6239C18.5792 18.4428 18.7562 18.147 18.9092 17.7365L19.1325 17.1207L15.7398 7.72727H17.6716L20.02 14.9233H20.1166L22.4649 7.72727H24.4028L20.5814 18.2376C20.4043 18.7205 20.1789 19.129 19.9053 19.4631C19.6316 19.8011 19.3056 20.0547 18.9273 20.2237C18.549 20.3928 18.1103 20.4773 17.6112 20.4773ZM31.7875 17H29.8074L34.2566 4.63636H36.4118L40.861 17H38.8809L35.3855 6.8821H35.2889L31.7875 17ZM32.1195 12.1584H38.5428V13.728H32.1195V12.1584ZM46.258 17.1871C45.3605 17.1871 44.5878 16.9839 43.9398 16.5774C43.2959 16.1669 42.8008 15.6014 42.4547 14.881C42.1086 14.1606 41.9355 13.3356 41.9355 12.4059C41.9355 11.4641 42.1126 10.633 42.4668 9.91264C42.821 9.18821 43.32 8.62275 43.964 8.21626C44.6079 7.80978 45.3665 7.60653 46.2399 7.60653C46.9442 7.60653 47.572 7.73733 48.1234 7.99893C48.6748 8.25651 49.1195 8.61873 49.4576 9.08558C49.7997 9.55244 50.0029 10.0978 50.0673 10.7216H48.3105C48.214 10.2869 47.9926 9.91264 47.6465 9.59872C47.3044 9.2848 46.8456 9.12784 46.2701 9.12784C45.767 9.12784 45.3263 9.26065 44.948 9.52628C44.5737 9.78788 44.2819 10.1622 44.0726 10.6491C43.8633 11.1321 43.7587 11.7036 43.7587 12.3636C43.7587 13.0398 43.8613 13.6233 44.0666 14.1143C44.2718 14.6054 44.5616 14.9857 44.9359 15.2553C45.3142 15.525 45.7589 15.6598 46.2701 15.6598C46.6122 15.6598 46.9221 15.5974 47.1998 15.4727C47.4815 15.3439 47.7169 15.1607 47.9061 14.9233C48.0993 14.6858 48.2341 14.4001 48.3105 14.0661H50.0673C50.0029 14.6657 49.8077 15.201 49.4817 15.6719C49.1557 16.1428 48.719 16.513 48.1717 16.7827C47.6284 17.0523 46.9905 17.1871 46.258 17.1871ZM55.9035 17.1871C55.006 17.1871 54.2333 16.9839 53.5853 16.5774C52.9414 16.1669 52.4463 15.6014 52.1002 14.881C51.7541 14.1606 51.5811 13.3356 51.5811 12.4059C51.5811 11.4641 51.7581 10.633 52.1123 9.91264C52.4665 9.18821 52.9655 8.62275 53.6095 8.21626C54.2534 7.80978 55.012 7.60653 55.8854 7.60653C56.5897 7.60653 57.2175 7.73733 57.7689 7.99893C58.3203 8.25651 58.765 8.61873 59.1031 9.08558C59.4452 9.55244 59.6484 10.0978 59.7128 10.7216H57.9561C57.8595 10.2869 57.6381 9.91264 57.292 9.59872C56.9499 9.2848 56.4911 9.12784 55.9156 9.12784C55.4125 9.12784 54.9718 9.26065 54.5935 9.52628C54.2192 9.78788 53.9274 10.1622 53.7181 10.6491C53.5088 11.1321 53.4042 11.7036 53.4042 12.3636C53.4042 13.0398 53.5068 13.6233 53.7121 14.1143C53.9173 14.6054 54.2071 14.9857 54.5814 15.2553C54.9597 15.525 55.4044 15.6598 55.9156 15.6598C56.2577 15.6598 56.5676 15.5974 56.8453 15.4727C57.127 15.3439 57.3624 15.1607 57.5516 14.9233C57.7448 14.6858 57.8796 14.4001 57.9561 14.0661H59.7128C59.6484 14.6657 59.4532 15.201 59.1272 15.6719C58.8012 16.1428 58.3646 16.513 57.8172 16.7827C57.2739 17.0523 56.636 17.1871 55.9035 17.1871ZM65.549 17.1871C64.6797 17.1871 63.921 16.9879 63.2731 16.5895C62.6251 16.1911 62.122 15.6336 61.7638 14.9173C61.4057 14.2009 61.2266 13.3638 61.2266 12.4059C61.2266 11.444 61.4057 10.6029 61.7638 9.88246C62.122 9.16205 62.6251 8.60263 63.2731 8.20419C63.921 7.80575 64.6797 7.60653 65.549 7.60653C66.4183 7.60653 67.177 7.80575 67.8249 8.20419C68.4729 8.60263 68.976 9.16205 69.3342 9.88246C69.6924 10.6029 69.8714 11.444 69.8714 12.4059C69.8714 13.3638 69.6924 14.2009 69.3342 14.9173C68.976 15.6336 68.4729 16.1911 67.8249 16.5895C67.177 16.9879 66.4183 17.1871 65.549 17.1871ZM65.555 15.6719C66.1185 15.6719 66.5853 15.523 66.9556 15.2251C67.3259 14.9273 67.5996 14.5309 67.7766 14.0359C67.9577 13.5408 68.0483 12.9955 68.0483 12.3999C68.0483 11.8082 67.9577 11.2649 67.7766 10.7699C67.5996 10.2708 67.3259 9.87038 66.9556 9.56854C66.5853 9.26669 66.1185 9.11577 65.555 9.11577C64.9876 9.11577 64.5167 9.26669 64.1424 9.56854C63.7721 9.87038 63.4964 10.2708 63.3153 10.7699C63.1383 11.2649 63.0497 11.8082 63.0497 12.3999C63.0497 12.9955 63.1383 13.5408 63.3153 14.0359C63.4964 14.5309 63.7721 14.9273 64.1424 15.2251C64.5167 15.523 64.9876 15.6719 65.555 15.6719ZM77.7602 13.1545V7.72727H79.5713V17H77.7964V15.3942H77.6998C77.4865 15.8892 77.1444 16.3017 76.6736 16.6317C76.2067 16.9577 75.6251 17.1207 74.9289 17.1207C74.3332 17.1207 73.806 16.9899 73.3472 16.7283C72.8924 16.4627 72.5342 16.0703 72.2726 15.5511C72.0151 15.032 71.8863 14.39 71.8863 13.6254V7.72727H73.6913V13.408C73.6913 14.0399 73.8664 14.543 74.2165 14.9173C74.5667 15.2915 75.0215 15.4787 75.5809 15.4787C75.9189 15.4787 76.255 15.3942 76.589 15.2251C76.9271 15.0561 77.2068 14.8005 77.4282 14.4585C77.6536 14.1164 77.7642 13.6817 77.7602 13.1545ZM83.8017 11.4943V17H81.9966V7.72727H83.7292V9.23651H83.8439C84.0572 8.7455 84.3913 8.35109 84.8461 8.05327C85.3049 7.75544 85.8824 7.60653 86.5787 7.60653C87.2105 7.60653 87.7639 7.73935 88.2388 8.00497C88.7137 8.26657 89.082 8.65696 89.3436 9.17614C89.6052 9.69531 89.736 10.3372 89.736 11.1019V17H87.9309V11.3192C87.9309 10.6471 87.7559 10.1219 87.4057 9.74361C87.0556 9.36127 86.5746 9.1701 85.9629 9.1701C85.5443 9.1701 85.1721 9.26065 84.8461 9.44176C84.5241 9.62287 84.2685 9.88849 84.0794 10.2386C83.8942 10.5848 83.8017 11.0033 83.8017 11.4943ZM96.4853 7.72727V9.17614H91.4203V7.72727H96.4853ZM92.7786 5.50568H94.5836V14.2773C94.5836 14.6275 94.6359 14.8911 94.7406 15.0682C94.8452 15.2412 94.9801 15.36 95.1451 15.4244C95.3141 15.4847 95.4972 15.5149 95.6944 15.5149C95.8393 15.5149 95.9661 15.5049 96.0748 15.4847C96.1834 15.4646 96.2679 15.4485 96.3283 15.4364L96.6543 16.9276C96.5497 16.9678 96.4007 17.008 96.2076 17.0483C96.0144 17.0926 95.7729 17.1167 95.4831 17.1207C95.0082 17.1288 94.5655 17.0443 94.155 16.8672C93.7445 16.6901 93.4125 16.4164 93.1589 16.0462C92.9054 15.6759 92.7786 15.2111 92.7786 14.6516V5.50568Z" fill="white"/>
</svg>
