<svg width="93" height="21" viewBox="0 0 93 21" fill="none" xmlns="http://www.w3.org/2000/svg">
<path d="M11.6271 8.65696H9.74361C9.67117 8.2545 9.53634 7.90033 9.33913 7.59446C9.14193 7.28859 8.90045 7.029 8.6147 6.8157C8.32895 6.60239 8.009 6.44141 7.65483 6.33274C7.30469 6.22408 6.93241 6.16974 6.538 6.16974C5.82564 6.16974 5.18774 6.34884 4.62429 6.70703C4.06487 7.06522 3.62216 7.59044 3.29616 8.28267C2.9742 8.9749 2.81321 9.82008 2.81321 10.8182C2.81321 11.8243 2.9742 12.6735 3.29616 13.3658C3.62216 14.058 4.06688 14.5812 4.63033 14.9354C5.19377 15.2895 5.82765 15.4666 6.53196 15.4666C6.92235 15.4666 7.29261 15.4143 7.64276 15.3097C7.99692 15.201 8.31688 15.042 8.60263 14.8327C8.88838 14.6235 9.12985 14.3679 9.32706 14.0661C9.52829 13.7602 9.66714 13.41 9.74361 13.0156L11.6271 13.0217C11.5265 13.6294 11.3313 14.1888 11.0415 14.6999C10.7558 15.207 10.3875 15.6457 9.93679 16.016C9.49006 16.3822 8.97893 16.666 8.40341 16.8672C7.82789 17.0684 7.20005 17.169 6.51989 17.169C5.44934 17.169 4.4955 16.9155 3.65838 16.4084C2.82126 15.8973 2.16122 15.1668 1.67827 14.217C1.19934 13.2672 0.959872 12.1342 0.959872 10.8182C0.959872 9.49811 1.20135 8.36517 1.6843 7.41939C2.16726 6.46958 2.8273 5.74112 3.66442 5.23402C4.50154 4.72289 5.45336 4.46733 6.51989 4.46733C7.1759 4.46733 7.78764 4.56191 8.35511 4.75107C8.92661 4.9362 9.43975 5.20987 9.89453 5.57209C10.3493 5.93028 10.7256 6.36896 11.0234 6.88814C11.3213 7.40329 11.5225 7.9929 11.6271 8.65696ZM17.6203 17.1871C16.751 17.1871 15.9923 16.9879 15.3444 16.5895C14.6964 16.1911 14.1933 15.6336 13.8351 14.9173C13.4769 14.2009 13.2979 13.3638 13.2979 12.4059C13.2979 11.444 13.4769 10.6029 13.8351 9.88246C14.1933 9.16205 14.6964 8.60263 15.3444 8.20419C15.9923 7.80575 16.751 7.60653 17.6203 7.60653C18.4896 7.60653 19.2483 7.80575 19.8962 8.20419C20.5442 8.60263 21.0473 9.16205 21.4055 9.88246C21.7636 10.6029 21.9427 11.444 21.9427 12.4059C21.9427 13.3638 21.7636 14.2009 21.4055 14.9173C21.0473 15.6336 20.5442 16.1911 19.8962 16.5895C19.2483 16.9879 18.4896 17.1871 17.6203 17.1871ZM17.6263 15.6719C18.1898 15.6719 18.6566 15.523 19.0269 15.2251C19.3972 14.9273 19.6708 14.5309 19.8479 14.0359C20.029 13.5408 20.1196 12.9955 20.1196 12.3999C20.1196 11.8082 20.029 11.2649 19.8479 10.7699C19.6708 10.2708 19.3972 9.87038 19.0269 9.56854C18.6566 9.26669 18.1898 9.11577 17.6263 9.11577C17.0589 9.11577 16.588 9.26669 16.2137 9.56854C15.8434 9.87038 15.5677 10.2708 15.3866 10.7699C15.2095 11.2649 15.121 11.8082 15.121 12.3999C15.121 12.9955 15.2095 13.5408 15.3866 14.0359C15.5677 14.5309 15.8434 14.9273 16.2137 15.2251C16.588 15.523 17.0589 15.6719 17.6263 15.6719ZM25.7626 11.4943V17H23.9576V7.72727H25.6902V9.23651H25.8049C26.0182 8.7455 26.3522 8.35109 26.807 8.05327C27.2658 7.75544 27.8433 7.60653 28.5396 7.60653C29.1715 7.60653 29.7248 7.73935 30.1998 8.00497C30.6747 8.26657 31.0429 8.65696 31.3045 9.17614C31.5661 9.69531 31.6969 10.3372 31.6969 11.1019V17H29.8919V11.3192C29.8919 10.6471 29.7168 10.1219 29.3667 9.74361C29.0165 9.36127 28.5356 9.1701 27.9238 9.1701C27.5053 9.1701 27.133 9.26065 26.807 9.44176C26.485 9.62287 26.2295 9.88849 26.0403 10.2386C25.8552 10.5848 25.7626 11.0033 25.7626 11.4943ZM38.4462 7.72727V9.17614H33.3812V7.72727H38.4462ZM34.7395 5.50568H36.5446V14.2773C36.5446 14.6275 36.5969 14.8911 36.7015 15.0682C36.8062 15.2412 36.941 15.36 37.106 15.4244C37.275 15.4847 37.4582 15.5149 37.6554 15.5149C37.8002 15.5149 37.927 15.5049 38.0357 15.4847C38.1444 15.4646 38.2289 15.4485 38.2892 15.4364L38.6152 16.9276C38.5106 16.9678 38.3617 17.008 38.1685 17.0483C37.9753 17.0926 37.7338 17.1167 37.4441 17.1207C36.9692 17.1288 36.5265 17.0443 36.1159 16.8672C35.7054 16.6901 35.3734 16.4164 35.1199 16.0462C34.8663 15.6759 34.7395 15.2111 34.7395 14.6516V5.50568ZM43.1414 17.2053C42.5538 17.2053 42.0226 17.0966 41.5477 16.8793C41.0728 16.6579 40.6965 16.3379 40.4188 15.9194C40.1451 15.5008 40.0083 14.9877 40.0083 14.38C40.0083 13.8568 40.1089 13.4261 40.3101 13.0881C40.5113 12.75 40.783 12.4824 41.1251 12.2852C41.4672 12.0879 41.8495 11.939 42.2721 11.8384C42.6947 11.7378 43.1253 11.6613 43.564 11.609C44.1194 11.5446 44.5702 11.4923 44.9163 11.4521C45.2624 11.4078 45.5139 11.3374 45.6709 11.2408C45.8279 11.1442 45.9063 10.9872 45.9063 10.7699V10.7276C45.9063 10.2004 45.7574 9.7919 45.4596 9.50213C45.1658 9.21236 44.7271 9.06747 44.1436 9.06747C43.5358 9.06747 43.0569 9.2023 42.7068 9.47195C42.3606 9.73757 42.1212 10.0334 41.9884 10.3594L40.292 9.97301C40.4932 9.40956 40.787 8.95478 41.1734 8.60866C41.5638 8.25852 42.0125 8.00497 42.5196 7.84801C43.0267 7.68703 43.56 7.60653 44.1194 7.60653C44.4897 7.60653 44.8821 7.65081 45.2966 7.73935C45.7152 7.82386 46.1056 7.98082 46.4678 8.21023C46.834 8.43963 47.1338 8.76764 47.3673 9.19425C47.6007 9.61683 47.7174 10.1662 47.7174 10.8423V17H45.9546V15.7322H45.8822C45.7655 15.9657 45.5904 16.1951 45.357 16.4205C45.1235 16.6458 44.8237 16.833 44.4575 16.9819C44.0912 17.1308 43.6526 17.2053 43.1414 17.2053ZM43.5338 15.7564C44.0329 15.7564 44.4595 15.6578 44.8137 15.4606C45.1718 15.2634 45.4435 15.0058 45.6286 14.6879C45.8178 14.3659 45.9124 14.0218 45.9124 13.6555V12.4602C45.848 12.5246 45.7232 12.585 45.5381 12.6413C45.357 12.6937 45.1497 12.7399 44.9163 12.7802C44.6829 12.8164 44.4555 12.8506 44.2341 12.8828C44.0128 12.911 43.8276 12.9351 43.6787 12.9553C43.3286 12.9995 43.0086 13.074 42.7188 13.1786C42.4331 13.2833 42.2037 13.4342 42.0306 13.6314C41.8616 13.8246 41.7771 14.0821 41.7771 14.4041C41.7771 14.8509 41.9421 15.1889 42.2721 15.4183C42.6021 15.6437 43.0227 15.7564 43.5338 15.7564ZM54.0275 17.1871C53.13 17.1871 52.3573 16.9839 51.7093 16.5774C51.0654 16.1669 50.5704 15.6014 50.2243 14.881C49.8781 14.1606 49.7051 13.3356 49.7051 12.4059C49.7051 11.4641 49.8822 10.633 50.2363 9.91264C50.5905 9.18821 51.0895 8.62275 51.7335 8.21626C52.3774 7.80978 53.1361 7.60653 54.0094 7.60653C54.7137 7.60653 55.3416 7.73733 55.8929 7.99893C56.4443 8.25651 56.889 8.61873 57.2271 9.08558C57.5692 9.55244 57.7724 10.0978 57.8368 10.7216H56.0801C55.9835 10.2869 55.7621 9.91264 55.416 9.59872C55.0739 9.2848 54.6151 9.12784 54.0396 9.12784C53.5365 9.12784 53.0958 9.26065 52.7175 9.52628C52.3432 9.78788 52.0514 10.1622 51.8422 10.6491C51.6329 11.1321 51.5282 11.7036 51.5282 12.3636C51.5282 13.0398 51.6309 13.6233 51.8361 14.1143C52.0414 14.6054 52.3311 14.9857 52.7054 15.2553C53.0837 15.525 53.5285 15.6598 54.0396 15.6598C54.3817 15.6598 54.6916 15.5974 54.9693 15.4727C55.251 15.3439 55.4864 15.1607 55.6756 14.9233C55.8688 14.6858 56.0036 14.4001 56.0801 14.0661H57.8368C57.7724 14.6657 57.5772 15.201 57.2512 15.6719C56.9252 16.1428 56.4886 16.513 55.9412 16.7827C55.3979 17.0523 54.76 17.1871 54.0275 17.1871ZM64.0956 7.72727V9.17614H59.0306V7.72727H64.0956ZM60.3889 5.50568H62.194V14.2773C62.194 14.6275 62.2463 14.8911 62.3509 15.0682C62.4556 15.2412 62.5904 15.36 62.7554 15.4244C62.9244 15.4847 63.1076 15.5149 63.3048 15.5149C63.4497 15.5149 63.5764 15.5049 63.6851 15.4847C63.7938 15.4646 63.8783 15.4485 63.9387 15.4364L64.2646 16.9276C64.16 16.9678 64.0111 17.008 63.8179 17.0483C63.6247 17.0926 63.3833 17.1167 63.0935 17.1207C62.6186 17.1288 62.1759 17.0443 61.7654 16.8672C61.3548 16.6901 61.0228 16.4164 60.7693 16.0462C60.5157 15.6759 60.3889 15.2111 60.3889 14.6516V5.50568ZM78.6869 4.63636H80.5583V12.7681C80.5583 13.6334 80.3551 14.4001 79.9486 15.0682C79.5421 15.7322 78.9706 16.2554 78.2341 16.6378C77.4976 17.0161 76.6343 17.2053 75.6443 17.2053C74.6582 17.2053 73.797 17.0161 73.0605 16.6378C72.324 16.2554 71.7525 15.7322 71.346 15.0682C70.9395 14.4001 70.7362 13.6334 70.7362 12.7681V4.63636H72.6017V12.6172C72.6017 13.1766 72.7244 13.6737 72.9699 14.1083C73.2194 14.543 73.5716 14.8851 74.0264 15.1346C74.4811 15.3801 75.0204 15.5028 75.6443 15.5028C76.2721 15.5028 76.8134 15.3801 77.2682 15.1346C77.727 14.8851 78.0771 14.543 78.3186 14.1083C78.5641 13.6737 78.6869 13.1766 78.6869 12.6172V4.63636ZM90.074 9.99112L88.438 10.2809C88.3696 10.0716 88.2609 9.8724 88.112 9.68324C87.9672 9.49408 87.7699 9.33913 87.5204 9.21839C87.2709 9.09766 86.959 9.03729 86.5847 9.03729C86.0736 9.03729 85.647 9.15199 85.3049 9.38139C84.9628 9.60677 84.7917 9.89856 84.7917 10.2567C84.7917 10.5666 84.9064 10.8162 85.1358 11.0053C85.3652 11.1945 85.7355 11.3494 86.2466 11.4702L87.7196 11.8082C88.5729 12.0054 89.2087 12.3093 89.6273 12.7198C90.0459 13.1303 90.2551 13.6636 90.2551 14.3196C90.2551 14.875 90.0942 15.37 89.7722 15.8047C89.4542 16.2353 89.0095 16.5734 88.438 16.8189C87.8706 17.0644 87.2125 17.1871 86.464 17.1871C85.4256 17.1871 84.5784 16.9658 83.9224 16.5231C83.2664 16.0763 82.8639 15.4425 82.715 14.6214L84.4597 14.3558C84.5684 14.8106 84.7917 15.1547 85.1298 15.3881C85.4679 15.6175 85.9086 15.7322 86.4519 15.7322C87.0435 15.7322 87.5164 15.6095 87.8706 15.364C88.2247 15.1145 88.4018 14.8106 88.4018 14.4524C88.4018 14.1626 88.2931 13.9192 88.0758 13.7219C87.8625 13.5247 87.5345 13.3758 87.0918 13.2752L85.5222 12.9311C84.6569 12.7339 84.017 12.42 83.6025 11.9893C83.1919 11.5587 82.9867 11.0134 82.9867 10.3533C82.9867 9.80599 83.1396 9.32706 83.4455 8.91655C83.7514 8.50604 84.1739 8.18608 84.7132 7.95668C85.2525 7.72325 85.8703 7.60653 86.5666 7.60653C87.5687 7.60653 88.3575 7.82386 88.9331 8.25852C89.5086 8.68916 89.8889 9.26669 90.074 9.99112Z" fill="white"/>
</svg>
