<?xml version="1.0" encoding="UTF-8"?><svg xmlns="http://www.w3.org/2000/svg" xmlns:xlink="http://www.w3.org/1999/xlink" viewBox="0 0 59.65 104.66"><defs><style>.t{fill:url(#k);}.t,.u,.v,.w,.x,.y,.z,.aa,.ab,.ac,.ad,.ae,.af,.ag,.ah,.ai,.aj,.ak{stroke-width:0px;}.t,.ac{mix-blend-mode:screen;}.u{fill:url(#e);}.v{fill:url(#g);}.w{fill:url(#s);mix-blend-mode:soft-light;}.al{isolation:isolate;}.x{fill:url(#l);}.y{fill:url(#q);}.z{fill:url(#n);}.aa{fill:url(#h);}.ab{fill:url(#j);}.ac{fill:url(#i);}.ad{fill:#eefdff;}.ae{fill:url(#d);}.af{fill:url(#f);}.ag{fill:url(#m);}.ah{fill:#fff;}.ai{fill:url(#r);}.aj{fill:url(#p);}.ak{fill:url(#o);}</style><linearGradient id="d" x1="-22.74" y1="32.22" x2="5.81" y2="2.93" gradientTransform="translate(13.29 83.29) rotate(96.41) scale(1 -1)" gradientUnits="userSpaceOnUse"><stop offset=".04" stop-color="#06bed8"/><stop offset="1" stop-color="#defa8e"/></linearGradient><linearGradient id="e" x1="321.16" y1="9.39" x2="326.48" y2="8.62" gradientTransform="translate(-297.02 17.73) scale(1 -1)" gradientUnits="userSpaceOnUse"><stop offset=".04" stop-color="#06cff1"/><stop offset="1" stop-color="#defa8e"/></linearGradient><linearGradient id="f" x1="319.8" y1="22.9" x2="329.24" y2="12.24" gradientTransform="translate(-297.02 34.57) scale(1 -1)" xlink:href="#e"/><linearGradient id="g" x1="306.13" y1="59.81" x2="343.54" y2="22.41" gradientTransform="translate(-297.02 76.46) scale(1 -1)" xlink:href="#e"/><linearGradient id="h" x1="324.68" y1="45.82" x2="325.01" y2="30.86" gradientTransform="translate(352.53) rotate(-180) scale(1 -1)" gradientUnits="userSpaceOnUse"><stop offset="0" stop-color="#030d14"/><stop offset="1" stop-color="#0b2f45"/></linearGradient><radialGradient id="i" cx="315.99" cy="38.23" fx="315.99" fy="38.23" r="6.22" gradientTransform="translate(352.53) rotate(-180) scale(1 -1)" gradientUnits="userSpaceOnUse"><stop offset=".13" stop-color="#3280fc"/><stop offset="1" stop-color="#000"/></radialGradient><linearGradient id="j" x1="312.21" y1="38.23" x2="319.78" y2="38.23" xlink:href="#h"/><radialGradient id="k" cx="332.96" fx="332.96" r="6.22" xlink:href="#i"/><linearGradient id="l" x1="329.18" y1="38.23" x2="336.75" y2="38.23" xlink:href="#h"/><linearGradient id="m" x1="319.99" y1="2.97" x2="327.03" y2="1.94" gradientTransform="translate(352.53) rotate(-180) scale(1 -1)" xlink:href="#e"/><linearGradient id="n" x1="324.55" y1="51.63" x2="335.38" y2="40.8" gradientTransform="translate(352.53) rotate(-180) scale(1 -1)" gradientUnits="userSpaceOnUse"><stop offset=".07" stop-color="#0da9ab"/><stop offset="1" stop-color="#defa8e"/></linearGradient><linearGradient id="o" x1="314.32" y1="84.5" x2="343.01" y2="50.99" gradientTransform="translate(352.53) rotate(-180) scale(1 -1)" gradientUnits="userSpaceOnUse"><stop offset=".04" stop-color="#06cff1"/><stop offset=".04" stop-color="#06cff0"/><stop offset=".16" stop-color="#36d8da"/><stop offset=".27" stop-color="#5ce0c9"/><stop offset=".38" stop-color="#77e5bd"/><stop offset=".47" stop-color="#88e8b5"/><stop offset=".54" stop-color="#8eeab3"/><stop offset=".8" stop-color="#b9f29e"/><stop offset="1" stop-color="#defa8e"/></linearGradient><linearGradient id="p" x1="312.8" y1="67.79" x2="330.05" y2="47.64" gradientTransform="translate(352.53) rotate(-180) scale(1 -1)" xlink:href="#e"/><linearGradient id="q" x1="262.95" y1="85.58" x2="286.56" y2="73.28" gradientTransform="translate(-270.18 34.46) rotate(-8.66)" gradientUnits="userSpaceOnUse"><stop offset=".04" stop-color="#06cff1"/><stop offset=".07" stop-color="#0fd0ec"/><stop offset=".42" stop-color="#66e2c4"/><stop offset=".69" stop-color="#a7efa7"/><stop offset=".9" stop-color="#cef694"/><stop offset="1" stop-color="#defa8e"/></linearGradient><linearGradient id="r" x1="330.94" y1="77.97" x2="346.17" y2="70.03" gradientTransform="translate(352.53) rotate(-180) scale(1 -1)" xlink:href="#d"/><radialGradient id="s" cx="323.49" cy="-262.67" fx="323.49" fy="-262.67" r="17.55" gradientTransform="translate(354.24 206.22) rotate(-180) scale(1.01 -.41)" gradientUnits="userSpaceOnUse"><stop offset="0" stop-color="#bcd7d6"/><stop offset="1" stop-color="#fff"/></radialGradient></defs><g class="al"><g id="b"><g id="c"><path class="ae" d="M52.59,59.04c-8.33,2.28-10.3,1.64-11.78,3.88-.17.26-1.04,1.57-.87,3.25.14,1.34.89,2.37,1.35,2.83,2.85,2.76,10.71-.62,15.2-4.31.98-.81,3.61-2.97,3.08-4.5-.22-.63-.89-.94-1.38-1.16-2.14-.96-4.36-.32-5.61.02Z"/><rect class="u" x="26.87" y="3.05" width="1.77" height="11.64" transform="translate(55.52 17.73) rotate(-180)"/><rect class="af" x="20" y="13.46" width="15.51" height="7.65" rx="1.63" ry="1.63" transform="translate(55.52 34.57) rotate(-180)"/><path class="v" d="M12.8,17.12h29.92c7.06,0,12.8,5.73,12.8,12.8v6.65c0,12.57-10.2,22.77-22.77,22.77h-9.97C10.2,59.34,0,49.14,0,36.57v-6.65C0,22.85,5.73,17.12,12.8,17.12Z" transform="translate(55.52 76.46) rotate(-180)"/><path class="aa" d="M8.73,45.33h0c.73.36,1.54.55,2.37.55h33.32c.83,0,1.64-.19,2.37-.55h0c1.78-.88,2.79-2.66,2.54-4.49l-.02-.13c-.85-6.19-6.46-10.95-13.33-11.3-2.91-.15-5.96-.23-9.14-.21-2.49.01-4.9.09-7.22.21-6.9.36-12.54,5.09-13.4,11.31,0,.04-.01.09-.02.13-.25,1.83.76,3.61,2.54,4.49Z"/><circle class="ac" cx="36.54" cy="38.23" r="6.28"/><circle class="ad" cx="36.54" cy="38.23" r="4.51"/><circle class="ab" cx="36.54" cy="38.23" r="3.79"/><path class="ad" d="M34.11,37.25c0,.77.63,1.4,1.4,1.4s1.4-.63,1.4-1.4-.63-1.4-1.4-1.4-1.4.63-1.4,1.4Z"/><circle class="ad" cx="37.1" cy="41.13" r=".56"/><path class="ad" d="M38.49,40.29c0,.15.13.28.28.28s.28-.13.28-.28c0-.15-.13-.28-.28-.28s-.28.13-.28.28Z"/><circle class="t" cx="19.57" cy="38.23" r="6.28"/><circle class="ad" cx="19.57" cy="38.23" r="4.51"/><circle class="x" cx="19.57" cy="38.23" r="3.79"/><path class="ad" d="M17.14,37.25c0,.77.63,1.4,1.4,1.4s1.4-.63,1.4-1.4-.63-1.4-1.4-1.4-1.4.63-1.4,1.4Z"/><circle class="ad" cx="20.13" cy="41.13" r=".56"/><path class="ad" d="M21.52,40.29c0,.15.13.28.28.28s.28-.13.28-.28c0-.15-.13-.28-.28-.28s-.28.13-.28.28Z"/><path class="ag" d="M25.49,2.27c0,1.25,1.02,2.27,2.27,2.27s2.27-1.02,2.27-2.27S29.01,0,27.76,0s-2.27,1.02-2.27,2.27Z"/><path class="ah" d="M26.18,1.39c0,.38.31.69.69.69s.69-.31.69-.69c0-.38-.31-.69-.69-.69s-.69.31-.69.69Z"/><path class="ah" d="M8.2,24.4c-.03,1.06.84,2.33,1.83,2.44.93.1,1.67-.85,2.44-1.83.75-.97,2.4-3.44,1.75-4.15-.87-.93-5.94,1.03-6.01,3.54Z"/><circle class="ah" cx="16.69" cy="19.57" r=".79"/><path class="ah" d="M8.31,39.12c.25.18,2.02-3.42,6.76-6.54,1.67-1.1,3.31-1.88,3.21-2.11-.1-.23-1.95.2-3.44.89-4.73,2.19-6.84,7.54-6.54,7.76Z"/><path class="ah" d="M20.45,15.73c.06,0,.09-.32.37-.84,0,0,.13-.24.28-.44.48-.65,2.09-.64,2.22-.64,2.51.02,4.13-.14,4.13-.12,0,.01-1.18-.01-2.04-.03-2.44-.05-3.89-.18-4.51.47-.26.27-.39.62-.39.62-.18.48-.12.97-.05.98Z"/><path class="ad" d="M20.97,48.57c.06.6.56,1.07,1.16,1.12l8.32.8c.6.06,1.18-.3,1.36-.88.08-.26.14-.52.18-.8.01-.08,0-.15-.06-.21-.05-.06-.12-.1-.19-.11l-10.5-1.01c-.07,0-.15.02-.21.07-.06.05-.09.12-.09.19-.01.28,0,.55.02.82Z"/><path class="z" d="M20.97,48.57c.27,2.58,2.32,4.7,5,4.96,2.64.26,5.03-1.38,5.81-3.81-.21.52-.75.83-1.32.78l-8.32-.8c-.6-.06-1.1-.52-1.16-1.12Z"/><path class="ak" d="M7.86,67.26c0,.08,0,.15,0,.22.03.7.19,1.22.27,1.46,2.29,7,3.66,10.69,5.59,13.67.33.52.68,1.01,1.06,1.5.49.65,1.03,1.28,1.63,1.93,1.33,1.45,3.34,2.1,3.99,2.33,2.37.84,4.46.68,5.86.7h.24c1.4-.01,3.49.14,5.86-.7.65-.23,2.66-.88,3.99-2.33,3.66-3.98,5.06-7.29,8.27-17.1.08-.23.23-.71.27-1.37,0-.19.01-.38,0-.57-.07-1.17-.55-2.32-1.39-3.37-1.45-1.8-3.68-2.79-5.99-2.8l-11.13-.05-10.93-.04c-2.36,0-4.65.98-6.15,2.81-.72.88-1.19,1.84-1.36,2.82-.02.14-.04.28-.06.42-.01.16-.02.31-.02.47Z"/><path class="aj" d="M26.37,60.78l11.13.05c2.31,0,4.54,1,5.99,2.8.84,1.05,1.32,2.2,1.39,3.37-.06-1.2-.55-2.38-1.43-3.46-1.5-1.83-3.79-2.82-6.15-2.81l-10.93.04Z"/><path class="y" d="M15.31,77.19c.16-8.64,1.33-10.34-.39-12.4-.2-.24-1.21-1.44-2.87-1.75-1.32-.24-2.53.18-3.1.5-3.46,1.96-2.43,10.45-.15,15.8.5,1.17,1.83,4.3,3.45,4.23.66-.03,1.16-.59,1.5-.99,1.52-1.78,1.54-4.09,1.56-5.39Z"/><path class="ai" d="M13.72,82.61c.33.52.68,1.01,1.06,1.5.12-.12.23-.25.32-.36,1.52-1.78,1.54-4.09,1.56-5.39.16-8.64,1.33-10.34-.39-12.4-.13-.15-.59-.7-1.34-1.16,1.7,2.05.54,3.77.38,12.38-.02,1.3-.04,3.61-1.56,5.4,0,0-.02.02-.03.03Z"/><path class="ah" d="M8.85,70c.05-.93.22-1.61.57-2.98.46-1.79,1.03-2.66.66-3-.24-.22-.72-.07-.82-.04-1.63.52-2.14,3.58-2.07,5.5.04,1.17.33,2.49.76,2.54.07,0,.24,0,.36-.11.48-.42.51-1.22.55-1.92Z"/><path class="ah" d="M7.73,73.27c0,.19.15.34.34.34s.34-.15.34-.34-.15-.34-.34-.34-.34.15-.34.34Z"/><ellipse class="w" cx="26.87" cy="97.39" rx="17.76" ry="7.27"/></g></g></g></svg>